<svg viewBox="0 0 1440 900" xmlns="http://www.w3.org/2000/svg" width="1440" height="900">
  <defs>
    <style>
      @import url('https://fonts.googleapis.com/css2?family=JetBrains+Mono:wght@300;400&amp;display=swap');

      .sym {
        font-family: 'JetBrains Mono', 'Fira Code', 'Courier New', monospace;
        font-weight: 300;
        animation: fadeFloat 6s ease-in-out infinite;
        will-change: opacity;
      }
      .sym.s2 { animation-delay: -1.5s; }
      .sym.s3 { animation-delay: -3s; }
      .sym.s4 { animation-delay: -4.5s; }
      .sym.s5 { animation-delay: -0.8s; }
      .sym.s6 { animation-delay: -2.2s; }
      .sym.s7 { animation-delay: -3.8s; }
      .sym.s8 { animation-delay: -5.1s; }
      .sym.s9 { animation-delay: -1.1s; }
      .sym.s10 { animation-delay: -2.7s; }
      .sym.s11 { animation-delay: -4.1s; }
      .sym.s12 { animation-delay: -0.4s; }
      .sym.s13 { animation-delay: -5.5s; }
      .sym.s14 { animation-delay: -1.9s; }
      .sym.s15 { animation-delay: -3.3s; }

      .codeline {
        animation: lineFade 7s ease-in-out infinite;
        will-change: opacity;
      }
      .codeline.l2  { animation-delay: -1s; }
      .codeline.l3  { animation-delay: -2s; }
      .codeline.l4  { animation-delay: -3s; }
      .codeline.l5  { animation-delay: -4s; }
      .codeline.l6  { animation-delay: -5s; }
      .codeline.l7  { animation-delay: -6s; }
      .codeline.l8  { animation-delay: -0.5s; }
      .codeline.l9  { animation-delay: -1.5s; }
      .codeline.l10 { animation-delay: -2.5s; }
      .codeline.l11 { animation-delay: -3.5s; }
      .codeline.l12 { animation-delay: -4.5s; }
      .codeline.l13 { animation-delay: -5.5s; }
      .codeline.l14 { animation-delay: -0.3s; }
      .codeline.l15 { animation-delay: -1.8s; }
      .codeline.l16 { animation-delay: -3.2s; }

      .bin {
        font-family: 'JetBrains Mono', monospace;
        font-size: 11px;
        font-weight: 300;
        fill: #14532d;
        animation: binFade 8s ease-in-out infinite;
        will-change: opacity;
      }
      .bin.b2 { animation-delay: -2s; }
      .bin.b3 { animation-delay: -4s; }
      .bin.b4 { animation-delay: -6s; }
      .bin.b5 { animation-delay: -1s; }
      .bin.b6 { animation-delay: -3s; }
      .bin.b7 { animation-delay: -5s; }
      .bin.b8 { animation-delay: -7s; }

      .cursor { animation: blink 1.1s step-end infinite; will-change: opacity; }

      @keyframes fadeFloat {
        0%,100% { opacity: 0.06; }
        50%      { opacity: 0.55; }
      }
      @keyframes lineFade {
        0%,100% { opacity: 0.07; }
        50%      { opacity: 0.35; }
      }
      @keyframes binFade {
        0%,100% { opacity: 0.08; }
        50%      { opacity: 0.5; }
      }
      @keyframes blink {
        0%,100% { opacity: 1; }
        50%      { opacity: 0; }
      }

      @media (prefers-reduced-motion: reduce) {
        .sym, .codeline, .bin, .cursor { animation: none !important; opacity: 0.18 !important; }
      }
    </style>

    <linearGradient id="bg" x1="0%" y1="0%" x2="60%" y2="100%">
      <stop offset="0%"   stop-color="#020a06"/>
      <stop offset="45%"  stop-color="#040d0a"/>
      <stop offset="100%" stop-color="#030810"/>
    </linearGradient>

    <!-- Subtle scanline pattern -->
    <pattern id="scan" x="0" y="0" width="1" height="4" patternUnits="userSpaceOnUse">
      <rect width="1440" height="1" y="3" fill="#000" opacity="0.07"/>
    </pattern>
  </defs>

  <!-- Background -->
  <rect width="1440" height="900" fill="url(#bg)"/>
  <!-- Scanlines overlay (static, zero CPU) -->
  <rect width="1440" height="900" fill="url(#scan)" opacity="0.4"/>


  <!-- ══════════════════════════════════════ -->
  <!--   SIMULATED CODE EDITOR LINES (left)  -->
  <!-- ══════════════════════════════════════ -->

  <!-- Line number gutter -->
  <rect x="30" y="0" width="1" height="900" fill="#0f2a1a" opacity="0.6"/>

  <!-- Line numbers -->
  <g font-family="'JetBrains Mono', monospace" font-size="11" fill="#1a4731" text-anchor="end">
    <text x="22" y="62">01</text>
    <text x="22" y="84">02</text>
    <text x="22" y="106">03</text>
    <text x="22" y="128">04</text>
    <text x="22" y="150">05</text>
    <text x="22" y="172">06</text>
    <text x="22" y="194">07</text>
    <text x="22" y="216">08</text>
    <text x="22" y="238">09</text>
    <text x="22" y="260">10</text>
    <text x="22" y="282">11</text>
    <text x="22" y="304">12</text>
    <text x="22" y="326">13</text>
    <text x="22" y="348">14</text>
    <text x="22" y="370">15</text>
    <text x="22" y="392">16</text>
    <text x="22" y="414">17</text>
    <text x="22" y="436">18</text>
    <text x="22" y="458">19</text>
    <text x="22" y="480">20</text>
    <text x="22" y="502">21</text>
    <text x="22" y="524">22</text>
    <text x="22" y="546">23</text>
    <text x="22" y="568">24</text>
    <text x="22" y="590">25</text>
    <text x="22" y="612">26</text>
    <text x="22" y="634">27</text>
    <text x="22" y="656">28</text>
    <text x="22" y="678">29</text>
    <text x="22" y="700">30</text>
    <text x="22" y="722">31</text>
    <text x="22" y="744">32</text>
    <text x="22" y="766">33</text>
    <text x="22" y="788">34</text>
    <text x="22" y="810">35</text>
    <text x="22" y="832">36</text>
    <text x="22" y="854">37</text>
    <text x="22" y="876">38</text>
  </g>

  <!-- Code lines — left block (indent level 0) -->
  <g rx="1">
    <rect class="codeline l2"  x="40" y="56"  width="210" height="7" rx="1" fill="#4ade80"/>
    <rect class="codeline l3"  x="40" y="78"  width="90"  height="7" rx="1" fill="#22d3ee"/>
    <rect class="codeline l4"  x="60" y="100" width="260" height="7" rx="1" fill="#4ade80"/>
    <rect class="codeline l5"  x="80" y="122" width="180" height="7" rx="1" fill="#fbbf24"/>
    <rect class="codeline l6"  x="80" y="144" width="320" height="7" rx="1" fill="#4ade80"/>
    <rect class="codeline l7"  x="80" y="166" width="140" height="7" rx="1" fill="#22d3ee"/>
    <rect class="codeline l8"  x="100" y="188" width="200" height="7" rx="1" fill="#4ade80"/>
    <rect class="codeline l9"  x="100" y="210" width="280" height="7" rx="1" fill="#fbbf24"/>
    <rect class="codeline l10" x="100" y="232" width="160" height="7" rx="1" fill="#4ade80"/>
    <rect class="codeline l11" x="80" y="254"  width="110" height="7" rx="1" fill="#22d3ee"/>
    <rect class="codeline l12" x="60" y="276"  width="40"  height="7" rx="1" fill="#4ade80"/>
    <rect class="codeline l13" x="40" y="298"  width="0"   height="7" rx="1" fill="#4ade80"/>
    <rect class="codeline l14" x="40" y="320"  width="190" height="7" rx="1" fill="#4ade80"/>
    <rect class="codeline l15" x="60" y="342"  width="240" height="7" rx="1" fill="#fbbf24"/>
    <rect class="codeline l16" x="80" y="364"  width="300" height="7" rx="1" fill="#4ade80"/>
    <rect class="codeline l2"  x="80" y="386"  width="150" height="7" rx="1" fill="#22d3ee"/>
    <rect class="codeline l3"  x="100" y="408" width="220" height="7" rx="1" fill="#4ade80"/>
    <rect class="codeline l4"  x="100" y="430" width="170" height="7" rx="1" fill="#fbbf24"/>
    <rect class="codeline l5"  x="100" y="452" width="260" height="7" rx="1" fill="#4ade80"/>
    <rect class="codeline l6"  x="80" y="474"  width="130" height="7" rx="1" fill="#4ade80"/>
    <rect class="codeline l7"  x="60" y="496"  width="40"  height="7" rx="1" fill="#22d3ee"/>
    <rect class="codeline l8"  x="40" y="518"  width="0"   height="7" rx="1" fill="#4ade80"/>
    <rect class="codeline l9"  x="40" y="540"  width="200" height="7" rx="1" fill="#4ade80"/>
    <rect class="codeline l10" x="60" y="562"  width="280" height="7" rx="1" fill="#fbbf24"/>
    <rect class="codeline l11" x="80" y="584"  width="190" height="7" rx="1" fill="#4ade80"/>
    <rect class="codeline l12" x="100" y="606" width="240" height="7" rx="1" fill="#22d3ee"/>
    <rect class="codeline l13" x="80" y="628"  width="160" height="7" rx="1" fill="#4ade80"/>
    <rect class="codeline l14" x="60" y="650"  width="40"  height="7" rx="1" fill="#4ade80"/>
    <rect class="codeline l15" x="40" y="672"  width="220" height="7" rx="1" fill="#fbbf24"/>
    <rect class="codeline l16" x="60" y="694"  width="300" height="7" rx="1" fill="#4ade80"/>
    <rect class="codeline l2"  x="80" y="716"  width="180" height="7" rx="1" fill="#22d3ee"/>
    <rect class="codeline l3"  x="80" y="738"  width="140" height="7" rx="1" fill="#4ade80"/>
    <rect class="codeline l4"  x="60" y="760"  width="40"  height="7" rx="1" fill="#4ade80"/>
    <rect class="codeline l5"  x="40" y="782"  width="210" height="7" rx="1" fill="#4ade80"/>
    <rect class="codeline l6"  x="60" y="804"  width="260" height="7" rx="1" fill="#fbbf24"/>
    <rect class="codeline l7"  x="80" y="826"  width="180" height="7" rx="1" fill="#22d3ee"/>
    <rect class="codeline l8"  x="60" y="848"  width="40"  height="7" rx="1" fill="#4ade80"/>
    <rect class="codeline l9"  x="40" y="870"  width="130" height="7" rx="1" fill="#4ade80"/>
  </g>


  <!-- ══════════════════════════════════════ -->
  <!--    FLOATING CODE SYMBOLS (scattered)  -->
  <!-- ══════════════════════════════════════ -->

  <!-- Keywords — green -->
  <text class="sym s2"  x="460"  y="72"   font-size="15" fill="#4ade80">function</text>
  <text class="sym s5"  x="820"  y="115"  font-size="14" fill="#4ade80">const</text>
  <text class="sym s8"  x="1150" y="88"   font-size="14" fill="#4ade80">return</text>
  <text class="sym s11" x="680"  y="310"  font-size="14" fill="#4ade80">import</text>
  <text class="sym s14" x="1020" y="460"  font-size="14" fill="#4ade80">async</text>
  <text class="sym s3"  x="500"  y="560"  font-size="14" fill="#4ade80">export</text>
  <text class="sym s7"  x="870"  y="680"  font-size="14" fill="#4ade80">class</text>
  <text class="sym s12" x="1220" y="340"  font-size="14" fill="#4ade80">let</text>
  <text class="sym s6"  x="440"  y="790"  font-size="14" fill="#4ade80">await</text>
  <text class="sym s9"  x="1100" y="750"  font-size="14" fill="#4ade80">default</text>

  <!-- Operators — cyan -->
  <text class="sym s3"  x="620"  y="148"  font-size="22" fill="#22d3ee">=&gt;</text>
  <text class="sym s6"  x="980"  y="195"  font-size="20" fill="#22d3ee">===</text>
  <text class="sym s9"  x="730"  y="400"  font-size="20" fill="#22d3ee">!==</text>
  <text class="sym s12" x="1180" y="520"  font-size="18" fill="#22d3ee">&amp;&amp;</text>
  <text class="sym s4"  x="550"  y="640"  font-size="20" fill="#22d3ee">||</text>
  <text class="sym s15" x="1050" y="820"  font-size="20" fill="#22d3ee">&gt;=</text>
  <text class="sym s7"  x="420"  y="460"  font-size="18" fill="#22d3ee">!=</text>
  <text class="sym s10" x="1310" y="160"  font-size="18" fill="#22d3ee">++</text>

  <!-- Brackets — amber -->
  <text class="sym s4"  x="530"  y="220"  font-size="32" fill="#fbbf24">{ }</text>
  <text class="sym s7"  x="1100" y="290"  font-size="28" fill="#fbbf24">[ ]</text>
  <text class="sym s10" x="750"  y="500"  font-size="30" fill="#fbbf24">( )</text>
  <text class="sym s13" x="440"  y="700"  font-size="26" fill="#fbbf24">{ }</text>
  <text class="sym s2"  x="1260" y="610"  font-size="28" fill="#fbbf24">[ ]</text>
  <text class="sym s5"  x="620"  y="840"  font-size="26" fill="#fbbf24">( )</text>
  <text class="sym s8"  x="940"  y="140"  font-size="36" fill="#fbbf24">&lt; /&gt;</text>
  <text class="sym s11" x="1340" y="440"  font-size="30" fill="#fbbf24">&lt; /&gt;</text>
  <text class="sym s14" x="700"  y="760"  font-size="28" fill="#fbbf24">&lt; /&gt;</text>

  <!-- Comments — muted -->
  <text class="sym s5"  x="470"  y="370"  font-size="13" fill="#4b5563">// TODO: refactor</text>
  <text class="sym s9"  x="1000" y="600"  font-size="13" fill="#4b5563">// init state</text>
  <text class="sym s13" x="820"  y="870"  font-size="13" fill="#4b5563">/* async handler */</text>
  <text class="sym s3"  x="1200" y="730"  font-size="13" fill="#4b5563">// deprecated</text>
  <text class="sym s7"  x="480"  y="490"  font-size="13" fill="#4b5563">/* v2.1.0 */</text>

  <!-- Strings — soft pink -->
  <text class="sym s6"  x="650"  y="265"  font-size="13" fill="#f9a8d4">"Hello, World!"</text>
  <text class="sym s10" x="1130" y="380"  font-size="13" fill="#f9a8d4">'development'</text>
  <text class="sym s14" x="560"  y="730"  font-size="13" fill="#f9a8d4">`template ${str}`</text>
  <text class="sym s4"  x="900"  y="550"  font-size="13" fill="#f9a8d4">"utf-8"</text>

  <!-- Numbers / hex — amber dim -->
  <text class="sym s8"  x="750"  y="185"  font-size="13" fill="#d97706">0xFF3C</text>
  <text class="sym s11" x="1050" y="480"  font-size="13" fill="#d97706">3.14159</text>
  <text class="sym s15" x="660"  y="430"  font-size="13" fill="#d97706">0b1101</text>
  <text class="sym s5"  x="1280" y="780"  font-size="13" fill="#d97706">0x00AF</text>
  <text class="sym s2"  x="490"  y="610"  font-size="13" fill="#d97706">255</text>

  <!-- Terminal commands — bright white -->
  <text class="sym s3"  x="840"  y="340"  font-size="13" fill="#e2e8f0">npm run build</text>
  <text class="sym s9"  x="1170" y="220"  font-size="13" fill="#e2e8f0">git commit -m</text>
  <text class="sym s13" x="730"  y="620"  font-size="13" fill="#e2e8f0">ssh-keygen -t</text>
  <text class="sym s6"  x="450"  y="155"  font-size="13" fill="#e2e8f0">node index.js</text>
  <text class="sym s12" x="1070" y="680"  font-size="13" fill="#e2e8f0">docker build .</text>

  <!-- ══════════════════════════════════════ -->
  <!--   BINARY STREAMS (right column)       -->
  <!-- ══════════════════════════════════════ -->

  <g class="bin b2"><text x="1360" y="60">01001011</text></g>
  <g class="bin b3"><text x="1360" y="75">11010110</text></g>
  <g class="bin b4"><text x="1360" y="90">00110101</text></g>
  <g class="bin b5"><text x="1360" y="105">10011001</text></g>
  <g class="bin b6"><text x="1360" y="120">01110010</text></g>
  <g class="bin b7"><text x="1360" y="135">11000101</text></g>
  <g class="bin b8"><text x="1360" y="150">00101110</text></g>
  <g class="bin b2"><text x="1360" y="165">10110011</text></g>
  <g class="bin b3"><text x="1360" y="180">01001001</text></g>
  <g class="bin b4"><text x="1360" y="195">11101100</text></g>
  <g class="bin b5"><text x="1360" y="210">00010111</text></g>
  <g class="bin b6"><text x="1360" y="225">10100010</text></g>
  <g class="bin b7"><text x="1360" y="240">01111000</text></g>
  <g class="bin b8"><text x="1360" y="255">11010001</text></g>
  <g class="bin b2"><text x="1360" y="270">00101011</text></g>
  <g class="bin b3"><text x="1360" y="285">10011100</text></g>
  <g class="bin b4"><text x="1360" y="300">01100110</text></g>
  <g class="bin b5"><text x="1360" y="315">11001010</text></g>
  <g class="bin b6"><text x="1360" y="330">00110000</text></g>
  <g class="bin b7"><text x="1360" y="345">10101101</text></g>
  <g class="bin b8"><text x="1360" y="360">01010011</text></g>
  <g class="bin b2"><text x="1360" y="375">11110010</text></g>
  <g class="bin b3"><text x="1360" y="390">00001111</text></g>
  <g class="bin b4"><text x="1360" y="405">10110100</text></g>
  <g class="bin b5"><text x="1360" y="420">01001110</text></g>
  <g class="bin b6"><text x="1360" y="435">11011001</text></g>
  <g class="bin b7"><text x="1360" y="450">00100001</text></g>
  <g class="bin b8"><text x="1360" y="465">10111010</text></g>
  <g class="bin b2"><text x="1360" y="480">01110101</text></g>
  <g class="bin b3"><text x="1360" y="495">11001100</text></g>
  <g class="bin b4"><text x="1360" y="510">00011000</text></g>
  <g class="bin b5"><text x="1360" y="525">10100111</text></g>
  <g class="bin b6"><text x="1360" y="540">01101001</text></g>
  <g class="bin b7"><text x="1360" y="555">11010100</text></g>
  <g class="bin b8"><text x="1360" y="570">00111011</text></g>
  <g class="bin b2"><text x="1360" y="585">10010110</text></g>
  <g class="bin b3"><text x="1360" y="600">01100001</text></g>
  <g class="bin b4"><text x="1360" y="615">11101111</text></g>
  <g class="bin b5"><text x="1360" y="630">00010010</text></g>
  <g class="bin b6"><text x="1360" y="645">10101000</text></g>
  <g class="bin b7"><text x="1360" y="660">01111101</text></g>
  <g class="bin b8"><text x="1360" y="675">11000011</text></g>
  <g class="bin b2"><text x="1360" y="690">00101100</text></g>
  <g class="bin b3"><text x="1360" y="705">10110110</text></g>
  <g class="bin b4"><text x="1360" y="720">01001010</text></g>
  <g class="bin b5"><text x="1360" y="735">11011100</text></g>
  <g class="bin b6"><text x="1360" y="750">00110111</text></g>
  <g class="bin b7"><text x="1360" y="765">10001001</text></g>
  <g class="bin b8"><text x="1360" y="780">01110011</text></g>
  <g class="bin b2"><text x="1360" y="795">11100000</text></g>
  <g class="bin b3"><text x="1360" y="810">00011101</text></g>
  <g class="bin b4"><text x="1360" y="825">10101011</text></g>
  <g class="bin b5"><text x="1360" y="840">01100100</text></g>
  <g class="bin b6"><text x="1360" y="855">11010000</text></g>
  <g class="bin b7"><text x="1360" y="870">00111110</text></g>
  <g class="bin b8"><text x="1360" y="885">10010011</text></g>

  <!-- Second binary column -->
  <g class="bin b5"><text x="1290" y="60">1101</text></g>
  <g class="bin b6"><text x="1290" y="75">0110</text></g>
  <g class="bin b7"><text x="1290" y="90">1001</text></g>
  <g class="bin b8"><text x="1290" y="105">0011</text></g>
  <g class="bin b2"><text x="1290" y="120">1100</text></g>
  <g class="bin b3"><text x="1290" y="135">0101</text></g>
  <g class="bin b4"><text x="1290" y="150">1010</text></g>
  <g class="bin b5"><text x="1290" y="165">0001</text></g>
  <g class="bin b6"><text x="1290" y="180">1110</text></g>
  <g class="bin b7"><text x="1290" y="195">0111</text></g>
  <g class="bin b8"><text x="1290" y="210">1000</text></g>
  <g class="bin b2"><text x="1290" y="225">0100</text></g>
  <g class="bin b3"><text x="1290" y="240">1011</text></g>
  <g class="bin b4"><text x="1290" y="255">0010</text></g>
  <g class="bin b5"><text x="1290" y="270">1111</text></g>
  <g class="bin b6"><text x="1290" y="285">0000</text></g>
  <g class="bin b7"><text x="1290" y="300">1101</text></g>
  <g class="bin b8"><text x="1290" y="315">0110</text></g>
  <g class="bin b2"><text x="1290" y="330">1001</text></g>
  <g class="bin b3"><text x="1290" y="345">0011</text></g>
  <g class="bin b4"><text x="1290" y="360">1100</text></g>
  <g class="bin b5"><text x="1290" y="375">0101</text></g>
  <g class="bin b6"><text x="1290" y="390">1010</text></g>
  <g class="bin b7"><text x="1290" y="405">0001</text></g>
  <g class="bin b8"><text x="1290" y="420">1110</text></g>
  <g class="bin b2"><text x="1290" y="435">0111</text></g>
  <g class="bin b3"><text x="1290" y="450">1000</text></g>
  <g class="bin b4"><text x="1290" y="465">0100</text></g>
  <g class="bin b5"><text x="1290" y="480">1011</text></g>
  <g class="bin b6"><text x="1290" y="495">0010</text></g>
  <g class="bin b7"><text x="1290" y="510">1111</text></g>
  <g class="bin b8"><text x="1290" y="525">0000</text></g>
  <g class="bin b2"><text x="1290" y="540">1101</text></g>
  <g class="bin b3"><text x="1290" y="555">0110</text></g>
  <g class="bin b4"><text x="1290" y="570">1001</text></g>
  <g class="bin b5"><text x="1290" y="585">0011</text></g>
  <g class="bin b6"><text x="1290" y="600">1100</text></g>
  <g class="bin b7"><text x="1290" y="615">0101</text></g>
  <g class="bin b8"><text x="1290" y="630">1010</text></g>
  <g class="bin b2"><text x="1290" y="645">0001</text></g>
  <g class="bin b3"><text x="1290" y="660">1110</text></g>
  <g class="bin b4"><text x="1290" y="675">0111</text></g>
  <g class="bin b5"><text x="1290" y="690">1000</text></g>
  <g class="bin b6"><text x="1290" y="705">0100</text></g>
  <g class="bin b7"><text x="1290" y="720">1011</text></g>
  <g class="bin b8"><text x="1290" y="735">0010</text></g>
  <g class="bin b2"><text x="1290" y="750">1111</text></g>
  <g class="bin b3"><text x="1290" y="765">0000</text></g>
  <g class="bin b4"><text x="1290" y="780">1101</text></g>
  <g class="bin b5"><text x="1290" y="795">0110</text></g>
  <g class="bin b6"><text x="1290" y="810">1001</text></g>
  <g class="bin b7"><text x="1290" y="825">0011</text></g>
  <g class="bin b8"><text x="1290" y="840">1100</text></g>
  <g class="bin b2"><text x="1290" y="855">0101</text></g>
  <g class="bin b3"><text x="1290" y="870">1010</text></g>
  <g class="bin b4"><text x="1290" y="885">0001</text></g>

  <!-- ══════════════════════════════════════ -->
  <!--    ACTIVE LINE HIGHLIGHT + CURSOR     -->
  <!-- ══════════════════════════════════════ -->

  <!-- Active line (very subtle) -->
  <rect x="30" y="474" width="1260" height="22" fill="#4ade80" opacity="0.025"/>

  <!-- Terminal prompt line at bottom -->
  <rect x="30" y="860" width="1410" height="1" fill="#14532d" opacity="0.5"/>
  <text x="42" y="878" font-family="'JetBrains Mono', monospace" font-size="13" fill="#4ade80" opacity="0.6">❯</text>
  <rect class="cursor" x="57" y="865" width="8" height="14" fill="#4ade80" opacity="0.8"/>

</svg>
