<svg viewBox="0 0 1440 900" xmlns="http://www.w3.org/2000/svg" width="1440" height="900">
  <defs>
    <style>
      .node { animation: pulse 3s ease-in-out infinite; }
      .node:nth-child(2n) { animation-delay: -1.5s; }
      .node:nth-child(3n) { animation-delay: -0.8s; }
      .node:nth-child(5n) { animation-delay: -2.1s; }
      .node:nth-child(7n) { animation-delay: -0.4s; }

      .line { animation: fadeLine 4s ease-in-out infinite; }
      .line:nth-child(2n) { animation-delay: -2s; }
      .line:nth-child(3n) { animation-delay: -1s; }
      .line:nth-child(5n) { animation-delay: -3s; }
      .line:nth-child(7n) { animation-delay: -0.5s; }

      .packet { animation: travel 6s linear infinite; }
      .packet:nth-child(2n) { animation-delay: -3s; }
      .packet:nth-child(3n) { animation-delay: -1.5s; }
      .packet:nth-child(5n) { animation-delay: -4.5s; }

      @keyframes pulse {
        0%, 100% { opacity: 0.5; r: 4; }
        50% { opacity: 1; r: 6; }
      }

      @keyframes fadeLine {
        0%, 100% { opacity: 0.1; }
        50% { opacity: 0.45; }
      }

      @keyframes travel {
        0% { offset-distance: 0%; opacity: 0; }
        5% { opacity: 1; }
        95% { opacity: 1; }
        100% { offset-distance: 100%; opacity: 0; }
      }

      .glow-node { animation: glowPulse 4s ease-in-out infinite; }
      .glow-node:nth-child(2n) { animation-delay: -2s; }
      .glow-node:nth-child(3n) { animation-delay: -1s; }

      @keyframes glowPulse {
        0%, 100% { opacity: 0; r: 10; }
        50% { opacity: 0.25; r: 18; }
      }
    </style>

    <!-- Dark background gradient -->
    <linearGradient id="bg" x1="0%" y1="0%" x2="100%" y2="100%">
      <stop offset="0%" stop-color="#030712"/>
      <stop offset="50%" stop-color="#050d1f"/>
      <stop offset="100%" stop-color="#020810"/>
    </linearGradient>

    <!-- Node glow filter -->
    <filter id="glow" x="-50%" y="-50%" width="200%" height="200%">
      <feGaussianBlur stdDeviation="3" result="blur"/>
      <feMerge><feMergeNode in="blur"/><feMergeNode in="SourceGraphic"/></feMerge>
    </filter>

    <filter id="softglow" x="-100%" y="-100%" width="300%" height="300%">
      <feGaussianBlur stdDeviation="8" result="blur"/>
      <feMerge><feMergeNode in="blur"/><feMergeNode in="SourceGraphic"/></feMerge>
    </filter>

    <!-- Packet dot -->
    <circle id="dot" r="2.5" fill="#38bdf8"/>
    <circle id="dot-accent" r="2" fill="#a78bfa"/>
    <circle id="dot-green" r="2" fill="#34d399"/>
  </defs>

  <!-- Background -->
  <rect width="1440" height="900" fill="url(#bg)"/>

  <!-- ═══════════════════════════════════════════ -->
  <!--              NETWORK LINES                  -->
  <!-- ═══════════════════════════════════════════ -->

  <!-- Primary mesh lines -->
  <g stroke="#1e40af" stroke-width="0.8">
    <line class="line" x1="72" y1="135" x2="210" y2="78" />
    <line class="line" x1="210" y1="78" x2="390" y2="155" />
    <line class="line" x1="210" y1="78" x2="310" y2="25" />
    <line class="line" x1="390" y1="155" x2="540" y2="90" />
    <line class="line" x1="390" y1="155" x2="480" y2="260" />
    <line class="line" x1="540" y1="90" x2="700" y2="140" />
    <line class="line" x1="540" y1="90" x2="620" y2="30" />
    <line class="line" x1="700" y1="140" x2="850" y2="80" />
    <line class="line" x1="700" y1="140" x2="760" y2="250" />
    <line class="line" x1="850" y1="80" x2="1010" y2="130" />
    <line class="line" x1="850" y1="80" x2="960" y2="20" />
    <line class="line" x1="1010" y1="130" x2="1160" y2="70" />
    <line class="line" x1="1010" y1="130" x2="1080" y2="240" />
    <line class="line" x1="1160" y1="70" x2="1300" y2="120" />
    <line class="line" x1="1300" y1="120" x2="1420" y2="65" />
    <line class="line" x1="1300" y1="120" x2="1380" y2="230" />

    <!-- Middle band -->
    <line class="line" x1="72" y1="135" x2="150" y2="280" />
    <line class="line" x1="150" y1="280" x2="310" y2="340" />
    <line class="line" x1="310" y1="340" x2="480" y2="260" />
    <line class="line" x1="480" y1="260" x2="620" y2="330" />
    <line class="line" x1="620" y1="330" x2="760" y2="250" />
    <line class="line" x1="760" y1="250" x2="920" y2="310" />
    <line class="line" x1="920" y1="310" x2="1080" y2="240" />
    <line class="line" x1="1080" y1="240" x2="1230" y2="300" />
    <line class="line" x1="1230" y1="300" x2="1380" y2="230" />
    <line class="line" x1="1380" y1="230" x2="1440" y2="340" />

    <!-- Cross connections top-middle -->
    <line class="line" x1="310" y1="25" x2="390" y2="155" />
    <line class="line" x1="620" y1="30" x2="700" y2="140" />
    <line class="line" x1="960" y1="20" x2="1010" y2="130" />
    <line class="line" x1="150" y1="280" x2="210" y2="78" />
    <line class="line" x1="310" y1="340" x2="390" y2="155" />
    <line class="line" x1="620" y1="330" x2="700" y2="140" />
    <line class="line" x1="920" y1="310" x2="850" y2="80" />
    <line class="line" x1="1230" y1="300" x2="1160" y2="70" />

    <!-- Lower mesh -->
    <line class="line" x1="100" y1="480" x2="270" y2="430" />
    <line class="line" x1="270" y1="430" x2="430" y2="510" />
    <line class="line" x1="430" y1="510" x2="580" y2="450" />
    <line class="line" x1="580" y1="450" x2="740" y2="500" />
    <line class="line" x1="740" y1="500" x2="900" y2="440" />
    <line class="line" x1="900" y1="440" x2="1060" y2="490" />
    <line class="line" x1="1060" y1="490" x2="1220" y2="430" />
    <line class="line" x1="1220" y1="430" x2="1390" y2="480" />

    <!-- Middle to lower cross -->
    <line class="line" x1="150" y1="280" x2="100" y2="480" />
    <line class="line" x1="310" y1="340" x2="270" y2="430" />
    <line class="line" x1="480" y1="260" x2="430" y2="510" />
    <line class="line" x1="620" y1="330" x2="580" y2="450" />
    <line class="line" x1="760" y1="250" x2="740" y2="500" />
    <line class="line" x1="920" y1="310" x2="900" y2="440" />
    <line class="line" x1="1080" y1="240" x2="1060" y2="490" />
    <line class="line" x1="1230" y1="300" x2="1220" y2="430" />
    <line class="line" x1="1380" y1="230" x2="1390" y2="480" />

    <!-- Bottom cluster -->
    <line class="line" x1="180" y1="650" x2="340" y2="600" />
    <line class="line" x1="340" y1="600" x2="500" y2="680" />
    <line class="line" x1="500" y1="680" x2="660" y2="620" />
    <line class="line" x1="660" y1="620" x2="820" y2="670" />
    <line class="line" x1="820" y1="670" x2="980" y2="610" />
    <line class="line" x1="980" y1="610" x2="1140" y2="660" />
    <line class="line" x1="1140" y1="660" x2="1300" y2="600" />

    <line class="line" x1="100" y1="480" x2="180" y2="650" />
    <line class="line" x1="270" y1="430" x2="340" y2="600" />
    <line class="line" x1="430" y1="510" x2="500" y2="680" />
    <line class="line" x1="580" y1="450" x2="660" y2="620" />
    <line class="line" x1="740" y1="500" x2="820" y2="670" />
    <line class="line" x1="900" y1="440" x2="980" y2="610" />
    <line class="line" x1="1060" y1="490" x2="1140" y2="660" />
    <line class="line" x1="1220" y1="430" x2="1300" y2="600" />
    <line class="line" x1="1390" y1="480" x2="1420" y2="640" />

    <!-- Bottom base -->
    <line class="line" x1="180" y1="650" x2="250" y2="800" />
    <line class="line" x1="340" y1="600" x2="420" y2="760" />
    <line class="line" x1="500" y1="680" x2="560" y2="820" />
    <line class="line" x1="660" y1="620" x2="700" y2="780" />
    <line class="line" x1="820" y1="670" x2="860" y2="820" />
    <line class="line" x1="980" y1="610" x2="1020" y2="760" />
    <line class="line" x1="1140" y1="660" x2="1180" y2="810" />
    <line class="line" x1="1300" y1="600" x2="1350" y2="770" />
    <line class="line" x1="250" y1="800" x2="420" y2="760" />
    <line class="line" x1="420" y1="760" x2="560" y2="820" />
    <line class="line" x1="560" y1="820" x2="700" y2="780" />
    <line class="line" x1="700" y1="780" x2="860" y2="820" />
    <line class="line" x1="860" y1="820" x2="1020" y2="760" />
    <line class="line" x1="1020" y1="760" x2="1180" y2="810" />
    <line class="line" x1="1180" y1="810" x2="1350" y2="770" />

    <!-- Diagonal extras for density -->
    <line class="line" x1="270" y1="430" x2="390" y2="155" />
    <line class="line" x1="580" y1="450" x2="540" y2="90" />
    <line class="line" x1="900" y1="440" x2="1010" y2="130" />
    <line class="line" x1="1220" y1="430" x2="1300" y2="120" />
    <line class="line" x1="430" y1="510" x2="310" y2="340" />
    <line class="line" x1="740" y1="500" x2="620" y2="330" />
    <line class="line" x1="1060" y1="490" x2="920" y2="310" />
  </g>

  <!-- Accent lines (brighter highlights) -->
  <g stroke="#38bdf8" stroke-width="0.6">
    <line class="line" x1="210" y1="78" x2="540" y2="90" />
    <line class="line" x1="700" y1="140" x2="1010" y2="130" />
    <line class="line" x1="310" y1="340" x2="760" y2="250" />
    <line class="line" x1="480" y1="260" x2="920" y2="310" />
    <line class="line" x1="580" y1="450" x2="1060" y2="490" />
    <line class="line" x1="340" y1="600" x2="820" y2="670" />
    <line class="line" x1="660" y1="620" x2="1140" y2="660" />
  </g>

  <!-- Purple accent lines -->
  <g stroke="#7c3aed" stroke-width="0.5">
    <line class="line" x1="150" y1="280" x2="620" y2="330" />
    <line class="line" x1="760" y1="250" x2="1230" y2="300" />
    <line class="line" x1="270" y1="430" x2="740" y2="500" />
    <line class="line" x1="820" y1="670" x2="1300" y2="600" />
  </g>

  <!-- ═══════════════════════════════════════════ -->
  <!--            GLOW HALOS (behind nodes)        -->
  <!-- ═══════════════════════════════════════════ -->
  <g filter="url(#softglow)" fill="#38bdf8">
    <circle class="glow-node" cx="210" cy="78" r="14"/>
    <circle class="glow-node" cx="700" cy="140" r="14"/>
    <circle class="glow-node" cx="1010" cy="130" r="14"/>
    <circle class="glow-node" cx="480" cy="260" r="14"/>
    <circle class="glow-node" cx="920" cy="310" r="14"/>
    <circle class="glow-node" cx="580" cy="450" r="14"/>
    <circle class="glow-node" cx="1060" cy="490" r="14"/>
    <circle class="glow-node" cx="660" cy="620" r="14"/>
  </g>
  <g filter="url(#softglow)" fill="#a78bfa">
    <circle class="glow-node" cx="310" cy="340" r="12"/>
    <circle class="glow-node" cx="760" cy="250" r="12"/>
    <circle class="glow-node" cx="430" cy="510" r="12"/>
    <circle class="glow-node" cx="980" cy="610" r="12"/>
  </g>

  <!-- ═══════════════════════════════════════════ -->
  <!--                  NODES                      -->
  <!-- ═══════════════════════════════════════════ -->

  <!-- Primary hub nodes (blue) -->
  <g fill="#38bdf8" filter="url(#glow)">
    <!-- Top row -->
    <circle class="node" cx="72" cy="135" r="4"/>
    <circle class="node" cx="210" cy="78" r="5.5"/>
    <circle class="node" cx="310" cy="25" r="3.5"/>
    <circle class="node" cx="390" cy="155" r="4.5"/>
    <circle class="node" cx="540" cy="90" r="4.5"/>
    <circle class="node" cx="620" cy="30" r="3.5"/>
    <circle class="node" cx="700" cy="140" r="5.5"/>
    <circle class="node" cx="850" cy="80" r="4.5"/>
    <circle class="node" cx="960" cy="20" r="3.5"/>
    <circle class="node" cx="1010" cy="130" r="5.5"/>
    <circle class="node" cx="1160" cy="70" r="4.5"/>
    <circle class="node" cx="1300" cy="120" r="4.5"/>
    <circle class="node" cx="1420" cy="65" r="3.5"/>
    <!-- Middle -->
    <circle class="node" cx="150" cy="280" r="4"/>
    <circle class="node" cx="480" cy="260" r="5"/>
    <circle class="node" cx="760" cy="250" r="5"/>
    <circle class="node" cx="1080" cy="240" r="5"/>
    <circle class="node" cx="1380" cy="230" r="4"/>
    <!-- Lower mid -->
    <circle class="node" cx="100" cy="480" r="4"/>
    <circle class="node" cx="430" cy="510" r="4.5"/>
    <circle class="node" cx="740" cy="500" r="4.5"/>
    <circle class="node" cx="1060" cy="490" r="4.5"/>
    <circle class="node" cx="1390" cy="480" r="4"/>
    <!-- Bottom cluster -->
    <circle class="node" cx="180" cy="650" r="4"/>
    <circle class="node" cx="500" cy="680" r="4.5"/>
    <circle class="node" cx="820" cy="670" r="4.5"/>
    <circle class="node" cx="1140" cy="660" r="4.5"/>
    <circle class="node" cx="1420" cy="640" r="3.5"/>
    <!-- Floor -->
    <circle class="node" cx="250" cy="800" r="3.5"/>
    <circle class="node" cx="560" cy="820" r="3.5"/>
    <circle class="node" cx="860" cy="820" r="3.5"/>
    <circle class="node" cx="1180" cy="810" r="3.5"/>
  </g>

  <!-- Purple secondary nodes -->
  <g fill="#a78bfa" filter="url(#glow)">
    <circle class="node" cx="310" cy="340" r="4.5"/>
    <circle class="node" cx="620" cy="330" r="4.5"/>
    <circle class="node" cx="920" cy="310" r="4.5"/>
    <circle class="node" cx="1230" cy="300" r="4.5"/>
    <circle class="node" cx="270" cy="430" r="4"/>
    <circle class="node" cx="580" cy="450" r="4.5"/>
    <circle class="node" cx="900" cy="440" r="4.5"/>
    <circle class="node" cx="1220" cy="430" r="4.5"/>
    <circle class="node" cx="340" cy="600" r="4"/>
    <circle class="node" cx="660" cy="620" r="4.5"/>
    <circle class="node" cx="980" cy="610" r="4.5"/>
    <circle class="node" cx="1300" cy="600" r="4"/>
    <circle class="node" cx="420" cy="760" r="3.5"/>
    <circle class="node" cx="700" cy="780" r="3.5"/>
    <circle class="node" cx="1020" cy="760" r="3.5"/>
    <circle class="node" cx="1350" cy="770" r="3.5"/>
  </g>

  <!-- Green accent nodes (hubs) -->
  <g fill="#34d399" filter="url(#glow)">
    <circle class="node" cx="390" cy="155" r="3.5"/>
    <circle class="node" cx="850" cy="80" r="3.5"/>
    <circle class="node" cx="1160" cy="70" r="3.5"/>
    <circle class="node" cx="150" cy="280" r="3"/>
    <circle class="node" cx="1380" cy="230" r="3"/>
    <circle class="node" cx="580" cy="450" r="3"/>
    <circle class="node" cx="820" cy="670" r="3"/>
  </g>

  <!-- ═══════════════════════════════════════════ -->
  <!--          ANIMATED PACKETS (data flow)       -->
  <!-- ═══════════════════════════════════════════ -->

  <!-- Blue packets -->
  <circle r="2.5" fill="#7dd3fc" filter="url(#glow)">
    <animateMotion dur="5s" repeatCount="indefinite" begin="0s">
      <mpath href="#path1"/>
    </animateMotion>
    <animate attributeName="opacity" values="0;1;1;0" dur="5s" repeatCount="indefinite"/>
  </circle>

  <circle r="2.5" fill="#38bdf8" filter="url(#glow)">
    <animateMotion dur="6s" repeatCount="indefinite" begin="-2s">
      <mpath href="#path2"/>
    </animateMotion>
    <animate attributeName="opacity" values="0;1;1;0" dur="6s" repeatCount="indefinite"/>
  </circle>

  <circle r="2" fill="#93c5fd" filter="url(#glow)">
    <animateMotion dur="7s" repeatCount="indefinite" begin="-3.5s">
      <mpath href="#path3"/>
    </animateMotion>
    <animate attributeName="opacity" values="0;1;1;0" dur="7s" repeatCount="indefinite"/>
  </circle>

  <!-- Purple packets -->
  <circle r="2.5" fill="#c4b5fd" filter="url(#glow)">
    <animateMotion dur="5.5s" repeatCount="indefinite" begin="-1s">
      <mpath href="#path4"/>
    </animateMotion>
    <animate attributeName="opacity" values="0;1;1;0" dur="5.5s" repeatCount="indefinite"/>
  </circle>

  <circle r="2" fill="#a78bfa" filter="url(#glow)">
    <animateMotion dur="8s" repeatCount="indefinite" begin="-4s">
      <mpath href="#path5"/>
    </animateMotion>
    <animate attributeName="opacity" values="0;1;1;0" dur="8s" repeatCount="indefinite"/>
  </circle>

  <!-- Green packets -->
  <circle r="2" fill="#6ee7b7" filter="url(#glow)">
    <animateMotion dur="6.5s" repeatCount="indefinite" begin="-2.5s">
      <mpath href="#path6"/>
    </animateMotion>
    <animate attributeName="opacity" values="0;1;1;0" dur="6.5s" repeatCount="indefinite"/>
  </circle>

  <circle r="2.5" fill="#34d399" filter="url(#glow)">
    <animateMotion dur="7.5s" repeatCount="indefinite" begin="-5s">
      <mpath href="#path7"/>
    </animateMotion>
    <animate attributeName="opacity" values="0;1;1;0" dur="7.5s" repeatCount="indefinite"/>
  </circle>

  <!-- Motion paths for packets -->
  <defs>
    <path id="path1" d="M72,135 L210,78 L390,155 L480,260 L310,340 L150,280 L100,480 L270,430 L430,510 L500,680"/>
    <path id="path2" d="M540,90 L700,140 L850,80 L1010,130 L1080,240 L920,310 L1060,490 L980,610 L820,670 L700,780"/>
    <path id="path3" d="M1420,65 L1300,120 L1160,70 L1010,130 L760,250 L620,330 L580,450 L660,620 L560,820"/>
    <path id="path4" d="M310,340 L480,260 L620,330 L760,250 L920,310 L1080,240 L1230,300 L1380,230"/>
    <path id="path5" d="M180,650 L340,600 L270,430 L430,510 L580,450 L740,500 L900,440 L1060,490 L1220,430 L1390,480"/>
    <path id="path6" d="M250,800 L420,760 L340,600 L500,680 L660,620 L820,670 L980,610 L1140,660 L1300,600 L1350,770"/>
    <path id="path7" d="M72,135 L150,280 L270,430 L580,450 L900,440 L1220,430 L1390,480 L1420,640"/>
  </defs>

</svg>
